<svg width="143" height="47" viewBox="0 0 143 47" fill="none" xmlns="http://www.w3.org/2000/svg">
<g id="ufora logo">
<path id="Vector" d="M6.02079 32.1212C6.02079 33.8995 6.51258 35.5 7.49614 36.9227C8.48021 38.3454 9.73952 39.3728 11.2741 40.0054V46.348C9.66059 45.9924 8.16551 45.3699 6.78781 44.4808C5.41061 43.5916 4.22012 42.5149 3.21682 41.2503C2.21352 39.9856 1.42627 38.5827 0.855557 37.0411C0.285352 35.5 0 33.8599 0 32.1212V13.5078H6.02079V32.1212ZM29.0415 13.5668V32.1212C29.0415 33.9788 28.7263 35.7175 28.0969 37.3379C27.4675 38.9582 26.6013 40.4104 25.4998 41.6949C24.3979 42.9788 23.0895 44.0458 21.5742 44.8959C20.0594 45.7454 18.4363 46.3084 16.7044 46.5853V40.3611C18.5147 39.8865 20.0199 38.8987 21.22 37.3968C22.4206 35.8953 23.0207 34.1368 23.0207 32.1212V13.5668H29.0415Z" fill="#2656FF"/>
<path id="Vector_2" d="M52.7405 5.54997C47.0076 5.07033 44.1409 7.55647 44.1409 13.0089V13.9901H52.7405V19.4862H44.1409V46.7038H38.4728V19.4862H33.261V13.9901H38.4728V13.0089C38.4728 8.60367 39.7002 5.26646 42.154 2.99879C44.6079 0.730618 48.1369 -0.251028 52.7405 0.0543421V5.54997Z" fill="#4F4E4E"/>
<path id="Vector_3" d="M52.7405 5.54997C49.7676 5.30151 47.5657 5.85025 46.1343 7.19672C44.8052 8.44665 44.1409 10.3841 44.1409 13.0089V13.9901H52.7405V19.4862H44.1409V46.7038H38.4728V19.4862H33.261V13.9901H38.4728V13.0089C38.4728 8.60367 39.7002 5.26646 42.154 2.99879C44.6079 0.730618 48.1369 -0.251028 52.7405 0.0543421V5.54997Z" fill="#4F4E4E"/>
<path id="Vector_4" d="M71.1004 19.3169C69.7232 19.3169 68.4244 19.5542 67.2046 20.0283C65.9847 20.5023 64.8929 21.1644 63.9286 22.014C62.9647 22.864 62.1679 23.8614 61.538 25.0077C60.9086 26.154 60.5149 27.3988 60.3576 28.7423H54.2776C54.4349 26.5686 54.9859 24.5433 55.9305 22.6664C56.8746 20.7889 58.1046 19.1589 59.6194 17.7759C61.1347 16.3923 62.8565 15.2958 64.7846 14.4859C66.7128 13.6754 68.7786 13.2705 70.9825 13.2705C73.1859 13.2705 75.2618 13.6754 77.2097 14.4859C79.1576 15.2958 80.889 16.3923 82.4043 17.7759C83.9191 19.1589 85.139 20.7889 86.0638 22.6664C86.9887 24.5433 87.5493 26.5686 87.7461 28.7423H81.6074C81.4106 27.3988 81.0074 26.154 80.3972 25.0077C79.7875 23.8614 79.0099 22.864 78.0658 22.014C77.1212 21.1644 76.039 20.5023 74.8191 20.0283C73.5993 19.5542 72.3005 19.3169 70.9233 19.3169H71.1004ZM71.1004 40.9535C73.4222 40.9535 75.4784 40.3016 77.2689 38.9973C79.0595 37.6935 80.3481 36.0335 81.1349 34.0179H87.5098C87.0772 35.8755 86.3492 37.5944 85.3262 39.1751C84.3031 40.7558 83.0636 42.1292 81.6074 43.2953C80.1513 44.4609 78.5282 45.3699 76.7377 46.0218C74.9471 46.6742 73.068 46.9999 71.1004 46.9999C69.1328 46.9999 67.2537 46.6742 65.4631 46.0218C63.6731 45.3699 62.0495 44.4609 60.5933 43.2953C59.1377 42.1292 57.8982 40.7558 56.8746 39.1751C55.8516 37.5944 55.1235 35.8755 54.6909 34.0179H61.0659C61.8527 36.0335 63.1418 37.6935 64.9319 38.9973C66.7224 40.3016 68.7786 40.9535 71.1004 40.9535Z" fill="#4F4E4E"/>
<path id="Vector_5" d="M98.4223 19.4859C100.29 15.4292 103.678 13.4014 108.586 13.4014V19.3548C105.806 19.2242 103.418 19.9655 101.42 21.5793C99.4215 23.1935 98.4223 25.7884 98.4223 29.3655V46.7035H92.7546V13.9898H98.4223V19.4859Z" fill="#4F4E4E"/>
<g id="Group">
<path id="Vector_6" d="M115.384 30.1356C115.394 31.4856 115.627 32.7604 116.092 33.9591C116.563 35.1841 117.221 36.2806 118.066 37.249C118.916 38.217 119.907 39.0172 121.051 39.6498C122.189 40.2819 123.429 40.6772 124.769 40.8352V46.9411C122.604 46.7831 120.585 46.2298 118.718 45.2811C116.846 44.333 115.227 43.0978 113.846 41.5765C112.47 40.0548 111.377 38.3257 110.573 36.3893C109.763 34.4529 109.363 32.3784 109.363 30.1651C109.363 27.9523 109.763 25.8675 110.573 23.9113C111.377 21.9551 112.47 20.2164 113.846 18.6946C115.227 17.1734 116.846 15.9483 118.718 15.0195C120.585 14.0907 122.604 13.5277 124.769 13.3301V19.4949C123.429 19.6925 122.189 20.0975 121.051 20.7103C119.907 21.3226 118.916 22.1035 118.066 23.0516C117.221 24.0002 116.563 25.0871 116.092 26.3121C115.627 27.5107 115.394 28.7851 115.384 30.1356ZM137.221 42.7559C136.578 43.3285 135.89 43.8544 135.157 44.333C133.583 45.3604 131.873 46.0916 130.021 46.526V40.1239C132.03 39.3338 133.679 38.0391 134.979 36.2415C136.28 34.4433 136.927 32.3784 136.927 30.0467C136.927 27.715 136.28 25.6501 134.979 23.8519C133.679 22.0537 132.03 20.7596 130.021 19.9695V13.5674C131.873 14.0018 133.583 14.733 135.157 15.7603C136.73 16.7877 138.096 18.0326 139.26 19.4949C140.418 20.9572 141.324 22.5872 141.972 24.3854C142.624 26.1836 142.948 28.0707 142.948 30.0467C142.948 30.8871 143.065 31.7112 142.948 32.5191V46.9411H137.221V42.7559ZM115.384 30.1356C115.384 30.1651 115.384 30.1945 115.384 30.2245V30.0467C115.384 30.0762 115.384 30.1061 115.384 30.1356Z" fill="#4F4E4E"/>
</g>
</g>
</svg>
